<svg xmlns="http://www.w3.org/2000/svg" viewBox="0 0 1600 1000" role="img" aria-label="Neon stage background for The Choppa"><defs><radialGradient id="g1" cx="25%" cy="20%" r="70%"><stop offset="0" stop-color="#ff3fa7" stop-opacity=".55"/><stop offset=".45" stop-color="#30143c" stop-opacity=".35"/><stop offset="1" stop-color="#04050a"/></radialGradient><radialGradient id="g2" cx="78%" cy="18%" r="62%"><stop offset="0" stop-color="#20e7ff" stop-opacity=".50"/><stop offset=".55" stop-color="#164b73" stop-opacity=".25"/><stop offset="1" stop-color="#04050a" stop-opacity="0"/></radialGradient><linearGradient id="floor" x1="0" y1="0" x2="1" y2="1"><stop offset="0" stop-color="#ff9a20" stop-opacity=".18"/><stop offset=".5" stop-color="#20e7ff" stop-opacity=".13"/><stop offset="1" stop-color="#ff3fa7" stop-opacity=".16"/></linearGradient><filter id="blur"><feGaussianBlur stdDeviation="18"/></filter><filter id="glow"><feGaussianBlur stdDeviation="5" result="b"/><feMerge><feMergeNode in="b"/><feMergeNode in="SourceGraphic"/></feMerge></filter></defs><rect width="1600" height="1000" fill="#04050a"/><rect width="1600" height="1000" fill="url(#g1)"/><rect width="1600" height="1000" fill="url(#g2)"/><g opacity=".32" filter="url(#blur)"><circle cx="320" cy="215" r="170" fill="#ff3fa7"/><circle cx="1270" cy="170" r="180" fill="#20e7ff"/><circle cx="850" cy="830" r="260" fill="#f6ff2e" opacity=".18"/></g><g opacity=".35" stroke-width="2"><path d="M0 720 C250 625 465 780 720 700 S1180 610 1600 735" fill="none" stroke="#20e7ff"/><path d="M0 790 C290 715 530 890 820 782 S1210 700 1600 815" fill="none" stroke="#ff3fa7"/><path d="M0 858 C360 760 610 930 920 835 S1290 790 1600 890" fill="none" stroke="#f6ff2e" opacity=".45"/></g><rect y="620" width="1600" height="380" fill="url(#floor)"/><g opacity=".18" stroke="#fff" stroke-width="1"><path d="M0 665H1600M0 740H1600M0 815H1600M0 890H1600"/><path d="M200 620 0 1000M420 620 300 1000M600 620 560 1000M800 620 800 1000M1000 620 1040 1000M1180 620 1300 1000M1400 620 1600 1000"/></g><g filter="url(#glow)"><text x="80" y="210" fill="#fff4df" font-family="Georgia,serif" font-size="118" font-weight="900" letter-spacing="-8">THE</text><text x="80" y="345" fill="#ff3fa7" font-family="Georgia,serif" font-size="150" font-weight="900" letter-spacing="-10">CHOPPA</text><text x="92" y="405" fill="#20e7ff" font-family="Consolas,monospace" font-size="28" font-weight="900">SLICE // TRIGGER // LOOP</text></g><g transform="translate(1080 300)" opacity=".62" filter="url(#glow)"><circle cx="150" cy="155" r="96" fill="#170b13" stroke="#ff3fa7" stroke-width="10"/><circle cx="100" cy="72" r="54" fill="#201018" stroke="#ff9a20" stroke-width="8"/><circle cx="202" cy="72" r="54" fill="#201018" stroke="#20e7ff" stroke-width="8"/><circle cx="115" cy="140" r="12" fill="#f6ff2e"/><circle cx="186" cy="140" r="12" fill="#f6ff2e"/><path d="M112 197 Q150 225 190 197" fill="none" stroke="#fff4df" stroke-width="10" stroke-linecap="round"/><path d="M86 260 Q150 330 226 260" fill="#201018" stroke="#75ff35" stroke-width="8"/></g><g opacity=".55" font-family="Consolas,monospace" font-weight="900" font-size="24" fill="#fff4df"><text x="100" y="900">1 2 3 4 5 6 7 8  /  Q W E R T Y U I</text><text x="101" y="936" fill="#d0c6b8">keyboard fixed • midi mapped • no trash goblins</text></g></svg>